<svg fill="#a1a1a1" xmlns="http://www.w3.org/2000/svg" viewBox="0 0 127 33"><path d="M9.3 16.5C9.3 9 14.3 2.7 21.2.7a16.5 16.5 0 1 0 0 31.6c-6.9-2-11.9-8.3-11.9-15.8Z" fill="#a1a1a1"/><path d="M21.7 10c4 0 7.4 2.8 8.5 6.4a8.9 8.9 0 1 0-17 0c1-3.6 4.4-6.3 8.5-6.3Z" fill="#a1a1a1"/><path d="M24.8 19.4c0 3-2 5.5-4.8 6.3A6.6 6.6 0 1 0 20 13c2.8.8 4.8 3.4 4.8 6.4Z" fill="#a1a1a1"/><path d="M39.6 13.5A4.4 4.4 0 0 1 44 9.1h1.3v2.7l-1 .2-1 .6-.2.4-.1.5h2.3v3H43v9.2h-3.4v-9.3h-1.3v-2.9h1.3ZM55.7 13.5h3.4v6.1a6.9 6.9 0 0 1-1.7 4.6 6 6 0 0 1-4.5 1.8c-1 0-1.8-.1-2.5-.5a6 6 0 0 1-3.2-3.4c-.3-.8-.4-1.6-.4-2.5v-6H50v6c0 .5 0 1 .2 1.3l.5 1c.2.4.5.6.9.8.3.2.8.3 1.2.3a2.6 2.6 0 0 0 2.1-1c.3-.3.4-.7.5-1l.2-1.4v-6ZM61.2 25.7V9.5h3.4v16.2h-3.4ZM66.9 25.7V9.5h3.3v16.2H67ZM78.5 21.2l3.3-7.7h3.7l-5.7 12.2h-2.7l-5.6-12.2H75l3.4 7.7ZM87 13.5h3.3v12.2H87V13.5Zm1.6-5 .8.1.6.4.4.7.2.7a1.9 1.9 0 0 1-.6 1.4l-.6.4a2 2 0 0 1-.8.1c-.5 0-1-.2-1.3-.5a2 2 0 0 1-.4-2.1c0-.3.2-.5.4-.7l.6-.4.7-.1ZM98.8 13.2a6.7 6.7 0 0 1 4.8 1.9 6.3 6.3 0 0 1 1.9 5.7h-9.8a3.3 3.3 0 0 0 3.2 2.2c.5 0 1-.1 1.4-.4.5-.2.9-.5 1.2-1h3.7c-.2.7-.5 1.3-1 1.8a6.1 6.1 0 0 1-3.3 2.3 7 7 0 0 1-6.9-1.6 6.1 6.1 0 0 1-2-4.5 6.1 6.1 0 0 1 2-4.5c.7-.6 1.4-1 2.2-1.4.8-.3 1.7-.5 2.6-.5Zm3.2 5.2c-.3-.6-.7-1.1-1.2-1.5-.6-.4-1.3-.7-2-.7s-1.4.3-2 .7c-.5.4-.9.9-1.1 1.5h6.3ZM123 13.5h3.6l-5 12.2H119l-2.5-6.5-2.5 6.5h-2.7l-5-12.2h3.6l2.7 7 2.8-7h2.2l2.8 7 2.7-7Z" fill="#a1a1a1"/></svg>