<svg xmlns="http://www.w3.org/2000/svg" viewBox="0 0 2428 1002"><path fillRule="evenodd" clip-rule="evenodd" d="M311.5 389.8h191.8l67 117.5 77.8-117.5h178.3L682.7 590.7l154 220.7H648.1l-77.8-135.8-91.7 135.8h-175l153.2-220.7-145.3-200.9Z" fill="#a1a1a1"/><path fillRule="evenodd" clip-rule="evenodd" d="M1279.3 640.7H955.4c2.9 26 10 45.2 21 58a76.5 76.5 0 0 0 61.1 27.3c16 0 31.5-4 45.3-12 8.8-5 18.2-13.7 28.2-26.5l159.2 14.7c-24.4 42.4-53.7 72.7-88 91.2-34.5 18.2-83.8 27.5-148.2 27.5-55.8 0-99.7-7.9-131.8-23.6a193.2 193.2 0 0 1-79.6-75c-21-34.4-31.6-74.6-31.6-121 0-65.8 21.2-119.2 63.3-159.8 42.3-40.8 100.6-61.3 175-61.3 60.3 0 108 9.2 142.8 27.5a184 184 0 0 1 79.8 79.3c18.3 34.7 27.4 79.8 27.4 135.3v18.4ZM1115 563.3c-3.2-31.3-11.6-53.7-25.2-67.1a73.1 73.1 0 0 0-53.8-20.3 73.6 73.6 0 0 0-61.6 30.6c-9.7 12.7-16 31.6-18.5 56.8H1115Zm137-173.5h168.3l81.9 267.1 84.5-267H1750l-179.1 421.5h-143.3L1252 389.8Zm463.2 212c0-64.3 21.7-117.4 65-159 43.5-41.7 102-62.6 176-62.6 84.4 0 148.2 24.5 191.3 73.5 34.6 39.4 52 88 52 145.8 0 64.7-21.5 117.8-64.5 159.3-43 41.3-102.4 62-178.5 62-67.7 0-122.5-17.1-164.3-51.5-51.4-42.6-77-98.4-77-167.6Zm162-.5c0 37.7 7.5 65.5 22.8 83.4a72 72 0 0 0 57.3 27.1c23.4 0 42.5-9 57.4-26.7 15-17.8 22.5-46 22.5-85.4 0-36.4-7.6-63.7-22.7-81.5a70.5 70.5 0 0 0-56-26.7c-23.5 0-43 9-58.3 27-15.4 18.2-23 45.9-23 82.8ZM2363.1.1a64 64 0 0 1 0 127.9 64 64 0 0 1 0-128Z" fill="#a1a1a1"/><path fillRule="evenodd" clip-rule="evenodd" d="M1912.1 671.5c220.3-135 326.4-327 334-419.2 8.7-106.7-71-235.9-358.9-238-345 3.6-790 158.3-1163.6 360.4h138c315.8-152.6 672-266.2 1000.8-275.2 287.7-7.8 304.4 149.2 302 199-3.6 71-74.7 234.5-252.3 373Zm-1315.7-222-36 22.7 10 17.5 26-40.1ZM419.8 567.5C212 717 57 873.2.8 1001.9 77.8 897.1 217 771 394.9 647l40.4-58.1-15.5-21.4Z" fill="#a1a1a1"/><path fillRule="evenodd" clip-rule="evenodd" d="M2036.3 580a819.8 819.8 0 0 0 114.2-122.8l-3-3.5c-8-9.2-17-17.5-26.5-25-21 39.8-50 83.7-88.2 128.3 1.6 7 2.8 14.7 3.5 23Z" fill="#a1a1a1"/></svg>